# xmcd
#
# Track frame offsets:
# 150
# 8175
# 21359
# 34960
# 46549
# 57384
# 67706
# 80224
# 93281
# 106357
# 115809
# 125433
# 137894
# 146174
# 156592
#
# Disc length: 2228 seconds
#
# Revision: 0
# Processed by: cddbd v1.5.2PL0 Copyright (c) Steve Scherf et al.
# Submitted via: Axialis_AX_CDPlayer 2.6
#
DISCID=d008b20f
DTITLE=Faron Young - YOUNG Faron - Hank Williams Was My Hero
DYEAR=1900
DGENRE=
TTITLE0=Your Cheatin'Heart
TTITLE1=I Fall To Pieces
TTITLE2=Chapel In The Moonlight
TTITLE3=Is It Really Over
TTITLE4=Once A Day
TTITLE5=Satisfied Mind
TTITLE6=Seasons Come, Seasons Go
TTITLE7=Swinging Doors
TTITLE8=There Goes My Everything
TTITLE9=I'll Be There
TTITLE10=I Can't Help
TTITLE11=Are You Sincere
TTITLE12=Hey Mr Bluebird
TTITLE13=Here Comes My Baby Back Again
TTITLE14=Memphis Tennessee
EXTD=
EXTT0=
EXTT1=
EXTT2=
EXTT3=
EXTT4=
EXTT5=
EXTT6=
EXTT7=
EXTT8=
EXTT9=
EXTT10=
EXTT11=
EXTT12=
EXTT13=
EXTT14=
PLAYORDER=
